<mxfile host="65bd71144e">
    <diagram id="Qez1Ma6yY59MN6FzloFS" name="Page-1">
        <mxGraphModel dx="1603" dy="959" grid="0" gridSize="10" guides="1" tooltips="1" connect="1" arrows="1" fold="1" page="0" pageScale="1" pageWidth="850" pageHeight="1100" math="0" shadow="0">
            <root>
                <mxCell id="0"/>
                <mxCell id="1" parent="0"/>
                <mxCell id="98" value="" style="rounded=0;whiteSpace=wrap;html=1;fillColor=#f5f5f5;fontColor=#333333;strokeColor=#666666;fontStyle=0" parent="1" vertex="1">
                    <mxGeometry x="-599" y="-21" width="566.98" height="119" as="geometry"/>
                </mxCell>
                <mxCell id="18" value="" style="rounded=0;whiteSpace=wrap;html=1;fillColor=#f5f5f5;fontColor=#333333;strokeColor=#666666;fontStyle=0" parent="1" vertex="1">
                    <mxGeometry x="-599" y="98" width="566.98" height="332" as="geometry"/>
                </mxCell>
                <mxCell id="2" value="FRONTEND" style="rounded=1;whiteSpace=wrap;html=1;fontStyle=1" parent="1" vertex="1">
                    <mxGeometry x="-445" y="131" width="100" height="60" as="geometry"/>
                </mxCell>
                <mxCell id="3" value="OBSERVER" style="rounded=1;whiteSpace=wrap;html=1;fontStyle=1" parent="1" vertex="1">
                    <mxGeometry x="-244" y="230" width="100" height="60" as="geometry"/>
                </mxCell>
                <mxCell id="4" value="KAFKA" style="rounded=1;whiteSpace=wrap;html=1;fontStyle=1" parent="1" vertex="1">
                    <mxGeometry x="-244" y="131" width="100" height="60" as="geometry"/>
                </mxCell>
                <mxCell id="5" value="WORKER" style="rounded=1;whiteSpace=wrap;html=1;fontStyle=1" parent="1" vertex="1">
                    <mxGeometry x="-447" y="253" width="100" height="60" as="geometry"/>
                </mxCell>
                <mxCell id="6" value="MINIO" style="rounded=1;whiteSpace=wrap;html=1;fontStyle=1" parent="1" vertex="1">
                    <mxGeometry x="-247" y="360" width="100" height="60" as="geometry"/>
                </mxCell>
                <mxCell id="7" value="KEYCLOAK" style="rounded=1;whiteSpace=wrap;html=1;fontStyle=1" parent="1" vertex="1">
                    <mxGeometry x="-335" y="7" width="100" height="60" as="geometry"/>
                </mxCell>
                <mxCell id="8" value="POSTGRESQL" style="rounded=1;whiteSpace=wrap;html=1;fontStyle=1" parent="1" vertex="1">
                    <mxGeometry x="-147" y="7" width="100" height="60" as="geometry"/>
                </mxCell>
                <mxCell id="46" style="edgeStyle=none;html=1;" parent="1" source="10" target="43" edge="1">
                    <mxGeometry relative="1" as="geometry"/>
                </mxCell>
                <mxCell id="10" value="" style="outlineConnect=0;dashed=0;verticalLabelPosition=bottom;verticalAlign=top;align=center;html=1;shape=mxgraph.aws3.classic_load_balancer;fillColor=#F58534;gradientColor=none;" parent="1" vertex="1">
                    <mxGeometry x="-522" y="148.5" width="23.96" height="25" as="geometry"/>
                </mxCell>
                <mxCell id="97" style="edgeStyle=orthogonalEdgeStyle;html=1;entryX=0;entryY=0.5;entryDx=0;entryDy=0;exitX=0.5;exitY=1;exitDx=0;exitDy=0;exitPerimeter=0;" parent="1" source="11" target="83" edge="1">
                    <mxGeometry relative="1" as="geometry"/>
                </mxCell>
                <mxCell id="11" value="" style="outlineConnect=0;dashed=0;verticalLabelPosition=bottom;verticalAlign=top;align=center;html=1;shape=mxgraph.aws3.classic_load_balancer;fillColor=#F58534;gradientColor=none;" parent="1" vertex="1">
                    <mxGeometry x="-307.98" y="330.5" width="23.96" height="25" as="geometry"/>
                </mxCell>
                <mxCell id="69" style="edgeStyle=none;html=1;" parent="1" source="12" target="48" edge="1">
                    <mxGeometry relative="1" as="geometry"/>
                </mxCell>
                <mxCell id="12" value="" style="outlineConnect=0;dashed=0;verticalLabelPosition=bottom;verticalAlign=top;align=center;html=1;shape=mxgraph.aws3.classic_load_balancer;fillColor=#F58534;gradientColor=none;" parent="1" vertex="1">
                    <mxGeometry x="-307.98" y="148.5" width="23.96" height="25" as="geometry"/>
                </mxCell>
                <mxCell id="95" style="edgeStyle=orthogonalEdgeStyle;html=1;" parent="1" source="13" target="92" edge="1">
                    <mxGeometry relative="1" as="geometry"/>
                </mxCell>
                <mxCell id="13" value="" style="outlineConnect=0;dashed=0;verticalLabelPosition=bottom;verticalAlign=top;align=center;html=1;shape=mxgraph.aws3.classic_load_balancer;fillColor=#F58534;gradientColor=none;" parent="1" vertex="1">
                    <mxGeometry x="-409.48" y="24.5" width="23.96" height="25" as="geometry"/>
                </mxCell>
                <mxCell id="33" style="edgeStyle=none;html=1;" parent="1" source="14" target="26" edge="1">
                    <mxGeometry relative="1" as="geometry"/>
                </mxCell>
                <mxCell id="14" value="" style="outlineConnect=0;dashed=0;verticalLabelPosition=bottom;verticalAlign=top;align=center;html=1;shape=mxgraph.aws3.internet_gateway;fillColor=#F58534;gradientColor=none;aspect=fixed;" parent="1" vertex="1">
                    <mxGeometry x="-663" y="149.5" width="22.03" height="23" as="geometry"/>
                </mxCell>
                <mxCell id="34" style="edgeStyle=none;html=1;" parent="1" source="26" target="10" edge="1">
                    <mxGeometry relative="1" as="geometry">
                        <mxPoint x="-561" y="161" as="targetPoint"/>
                    </mxGeometry>
                </mxCell>
                <mxCell id="38" value="" style="group" parent="1" vertex="1" connectable="0">
                    <mxGeometry x="-634.5" y="156" width="67" height="25" as="geometry"/>
                </mxCell>
                <mxCell id="26" value="" style="rounded=0;whiteSpace=wrap;html=1;aspect=fixed;fillColor=#a20025;strokeColor=#6F0000;fontColor=#ffffff;" parent="38" vertex="1">
                    <mxGeometry x="23.5" width="20" height="10" as="geometry"/>
                </mxCell>
                <mxCell id="27" value="Service API" style="text;html=1;strokeColor=none;fillColor=none;align=center;verticalAlign=middle;whiteSpace=wrap;rounded=0;spacing=2;" parent="38" vertex="1">
                    <mxGeometry y="10" width="67" height="15" as="geometry"/>
                </mxCell>
                <mxCell id="42" value="" style="group" parent="1" vertex="1" connectable="0">
                    <mxGeometry x="-479" y="156" width="67" height="25" as="geometry"/>
                </mxCell>
                <mxCell id="43" value="" style="rounded=0;whiteSpace=wrap;html=1;aspect=fixed;fillColor=#a20025;strokeColor=#6F0000;fontColor=#ffffff;" parent="42" vertex="1">
                    <mxGeometry x="23.5" width="20" height="10" as="geometry"/>
                </mxCell>
                <mxCell id="44" value="Entrypoint" style="text;html=1;strokeColor=none;fillColor=none;align=center;verticalAlign=middle;whiteSpace=wrap;rounded=0;spacing=2;" parent="42" vertex="1">
                    <mxGeometry y="10" width="67" height="15" as="geometry"/>
                </mxCell>
                <mxCell id="47" value="" style="group" parent="1" vertex="1" connectable="0">
                    <mxGeometry x="-278" y="156" width="67" height="25" as="geometry"/>
                </mxCell>
                <mxCell id="48" value="" style="rounded=0;whiteSpace=wrap;html=1;aspect=fixed;fillColor=#a20025;strokeColor=#6F0000;fontColor=#ffffff;" parent="47" vertex="1">
                    <mxGeometry x="23.5" width="20" height="10" as="geometry"/>
                </mxCell>
                <mxCell id="49" value="kafkaserver" style="text;html=1;strokeColor=none;fillColor=none;align=center;verticalAlign=middle;whiteSpace=wrap;rounded=0;spacing=2;" parent="47" vertex="1">
                    <mxGeometry y="10" width="67" height="15" as="geometry"/>
                </mxCell>
                <mxCell id="64" value="" style="group" parent="1" vertex="1" connectable="0">
                    <mxGeometry x="-377" y="156" width="67" height="25" as="geometry"/>
                </mxCell>
                <mxCell id="65" value="" style="rounded=0;whiteSpace=wrap;html=1;aspect=fixed;fillColor=#a20025;strokeColor=#6F0000;fontColor=#ffffff;" parent="64" vertex="1">
                    <mxGeometry x="23.5" width="20" height="10" as="geometry"/>
                </mxCell>
                <mxCell id="66" value="kafkaclient" style="text;html=1;strokeColor=none;fillColor=none;align=center;verticalAlign=middle;whiteSpace=wrap;rounded=0;spacing=2;" parent="64" vertex="1">
                    <mxGeometry y="10" width="67" height="15" as="geometry"/>
                </mxCell>
                <mxCell id="68" style="edgeStyle=none;html=1;" parent="1" source="65" target="12" edge="1">
                    <mxGeometry relative="1" as="geometry"/>
                </mxCell>
                <mxCell id="70" value="" style="group" parent="1" vertex="1" connectable="0">
                    <mxGeometry x="-381" y="256" width="67" height="25" as="geometry"/>
                </mxCell>
                <mxCell id="71" value="" style="rounded=0;whiteSpace=wrap;html=1;aspect=fixed;fillColor=#a20025;strokeColor=#6F0000;fontColor=#ffffff;" parent="70" vertex="1">
                    <mxGeometry x="23.5" width="20" height="10" as="geometry"/>
                </mxCell>
                <mxCell id="72" value="kafkaclient" style="text;html=1;strokeColor=none;fillColor=none;align=center;verticalAlign=middle;whiteSpace=wrap;rounded=0;spacing=2;" parent="70" vertex="1">
                    <mxGeometry y="10" width="67" height="15" as="geometry"/>
                </mxCell>
                <mxCell id="73" style="edgeStyle=orthogonalEdgeStyle;html=1;" parent="1" source="71" target="12" edge="1">
                    <mxGeometry relative="1" as="geometry"/>
                </mxCell>
                <mxCell id="74" value="" style="group" parent="1" vertex="1" connectable="0">
                    <mxGeometry x="-278" y="256.5" width="67" height="25" as="geometry"/>
                </mxCell>
                <mxCell id="75" value="" style="rounded=0;whiteSpace=wrap;html=1;aspect=fixed;fillColor=#a20025;strokeColor=#6F0000;fontColor=#ffffff;" parent="74" vertex="1">
                    <mxGeometry x="23.5" width="20" height="10" as="geometry"/>
                </mxCell>
                <mxCell id="76" value="kafkaclient" style="text;html=1;strokeColor=none;fillColor=none;align=center;verticalAlign=middle;whiteSpace=wrap;rounded=0;spacing=2;" parent="74" vertex="1">
                    <mxGeometry y="10" width="67" height="15" as="geometry"/>
                </mxCell>
                <mxCell id="78" style="edgeStyle=orthogonalEdgeStyle;html=1;" parent="1" source="75" target="12" edge="1">
                    <mxGeometry relative="1" as="geometry"/>
                </mxCell>
                <mxCell id="79" value="" style="group" parent="1" vertex="1" connectable="0">
                    <mxGeometry x="-381" y="290" width="67" height="25" as="geometry"/>
                </mxCell>
                <mxCell id="80" value="" style="rounded=0;whiteSpace=wrap;html=1;aspect=fixed;fillColor=#a20025;strokeColor=#6F0000;fontColor=#ffffff;" parent="79" vertex="1">
                    <mxGeometry x="23.5" width="20" height="10" as="geometry"/>
                </mxCell>
                <mxCell id="81" value="minioclient" style="text;html=1;strokeColor=none;fillColor=none;align=center;verticalAlign=middle;whiteSpace=wrap;rounded=0;spacing=2;" parent="79" vertex="1">
                    <mxGeometry y="10" width="67" height="15" as="geometry"/>
                </mxCell>
                <mxCell id="82" value="" style="group" parent="1" vertex="1" connectable="0">
                    <mxGeometry x="-281" y="387" width="67" height="25" as="geometry"/>
                </mxCell>
                <mxCell id="83" value="" style="rounded=0;whiteSpace=wrap;html=1;aspect=fixed;fillColor=#a20025;strokeColor=#6F0000;fontColor=#ffffff;" parent="82" vertex="1">
                    <mxGeometry x="23.5" width="20" height="10" as="geometry"/>
                </mxCell>
                <mxCell id="84" value="minioserver" style="text;html=1;strokeColor=none;fillColor=none;align=center;verticalAlign=middle;whiteSpace=wrap;rounded=0;spacing=2;" parent="82" vertex="1">
                    <mxGeometry y="10" width="67" height="15" as="geometry"/>
                </mxCell>
                <mxCell id="86" value="" style="group" parent="1" vertex="1" connectable="0">
                    <mxGeometry x="-431" y="126" width="67" height="25" as="geometry"/>
                </mxCell>
                <mxCell id="87" value="" style="rounded=0;whiteSpace=wrap;html=1;aspect=fixed;fillColor=#a20025;strokeColor=#6F0000;fontColor=#ffffff;" parent="86" vertex="1">
                    <mxGeometry x="23.5" width="20" height="10" as="geometry"/>
                </mxCell>
                <mxCell id="88" value="keycloakclient" style="text;html=1;strokeColor=none;fillColor=none;align=center;verticalAlign=middle;whiteSpace=wrap;rounded=0;spacing=2;" parent="86" vertex="1">
                    <mxGeometry y="10" width="67" height="15" as="geometry"/>
                </mxCell>
                <mxCell id="89" style="edgeStyle=orthogonalEdgeStyle;html=1;" parent="1" source="87" target="13" edge="1">
                    <mxGeometry relative="1" as="geometry"/>
                </mxCell>
                <mxCell id="91" value="" style="group" parent="1" vertex="1" connectable="0">
                    <mxGeometry x="-368" y="32" width="67" height="25" as="geometry"/>
                </mxCell>
                <mxCell id="92" value="" style="rounded=0;whiteSpace=wrap;html=1;aspect=fixed;fillColor=#a20025;strokeColor=#6F0000;fontColor=#ffffff;" parent="91" vertex="1">
                    <mxGeometry x="23.5" width="20" height="10" as="geometry"/>
                </mxCell>
                <mxCell id="93" value="keycloakserver" style="text;html=1;strokeColor=none;fillColor=none;align=center;verticalAlign=middle;whiteSpace=wrap;rounded=0;spacing=2;" parent="91" vertex="1">
                    <mxGeometry y="10" width="67" height="15" as="geometry"/>
                </mxCell>
                <mxCell id="96" style="edgeStyle=orthogonalEdgeStyle;html=1;" parent="1" source="80" target="11" edge="1">
                    <mxGeometry relative="1" as="geometry"/>
                </mxCell>
                <mxCell id="107" style="edgeStyle=orthogonalEdgeStyle;html=1;exitX=1;exitY=0.5;exitDx=0;exitDy=0;exitPerimeter=0;" parent="1" source="99" target="104" edge="1">
                    <mxGeometry relative="1" as="geometry"/>
                </mxCell>
                <mxCell id="99" value="" style="outlineConnect=0;dashed=0;verticalLabelPosition=bottom;verticalAlign=top;align=center;html=1;shape=mxgraph.aws3.classic_load_balancer;fillColor=#F58534;gradientColor=none;" parent="1" vertex="1">
                    <mxGeometry x="-203.00000000000003" y="24.5" width="23.96" height="25" as="geometry"/>
                </mxCell>
                <mxCell id="100" value="" style="group" parent="1" vertex="1" connectable="0">
                    <mxGeometry x="-267" y="31" width="67" height="25" as="geometry"/>
                </mxCell>
                <mxCell id="101" value="" style="rounded=0;whiteSpace=wrap;html=1;aspect=fixed;fillColor=#a20025;strokeColor=#6F0000;fontColor=#ffffff;" parent="100" vertex="1">
                    <mxGeometry x="23.5" width="20" height="10" as="geometry"/>
                </mxCell>
                <mxCell id="102" value="sqlclient" style="text;html=1;strokeColor=none;fillColor=none;align=center;verticalAlign=middle;whiteSpace=wrap;rounded=0;spacing=2;" parent="100" vertex="1">
                    <mxGeometry y="10" width="67" height="15" as="geometry"/>
                </mxCell>
                <mxCell id="103" value="" style="group" parent="1" vertex="1" connectable="0">
                    <mxGeometry x="-183" y="32" width="67" height="25" as="geometry"/>
                </mxCell>
                <mxCell id="104" value="" style="rounded=0;whiteSpace=wrap;html=1;aspect=fixed;fillColor=#a20025;strokeColor=#6F0000;fontColor=#ffffff;" parent="103" vertex="1">
                    <mxGeometry x="23.5" width="20" height="10" as="geometry"/>
                </mxCell>
                <mxCell id="105" value="sqlserver" style="text;html=1;strokeColor=none;fillColor=none;align=center;verticalAlign=middle;whiteSpace=wrap;rounded=0;spacing=2;" parent="103" vertex="1">
                    <mxGeometry y="10" width="67" height="15" as="geometry"/>
                </mxCell>
                <mxCell id="106" style="edgeStyle=orthogonalEdgeStyle;html=1;" parent="1" source="101" target="99" edge="1">
                    <mxGeometry relative="1" as="geometry"/>
                </mxCell>
                <mxCell id="108" value="KUMORI" style="rhombus;whiteSpace=wrap;html=1;fontStyle=1;fontColor=#000000;" parent="1" vertex="1">
                    <mxGeometry x="-128.02" y="290" width="80" height="80" as="geometry"/>
                </mxCell>
                <mxCell id="109" value="" style="group;fontColor=#CCCCCC;" parent="1" vertex="1" connectable="0">
                    <mxGeometry x="-177" y="255" width="67" height="25" as="geometry"/>
                </mxCell>
                <mxCell id="110" value="" style="rounded=0;whiteSpace=wrap;html=1;aspect=fixed;fillColor=#a20025;strokeColor=#6F0000;fontColor=#ffffff;" parent="109" vertex="1">
                    <mxGeometry x="23.5" width="20" height="10" as="geometry"/>
                </mxCell>
                <mxCell id="111" value="platformclient" style="text;html=1;strokeColor=none;fillColor=none;align=center;verticalAlign=middle;whiteSpace=wrap;rounded=0;spacing=2;fontColor=#000000;" parent="109" vertex="1">
                    <mxGeometry y="10" width="67" height="15" as="geometry"/>
                </mxCell>
                <mxCell id="116" style="edgeStyle=orthogonalEdgeStyle;html=1;" parent="1" source="114" target="108" edge="1">
                    <mxGeometry relative="1" as="geometry"/>
                </mxCell>
                <mxCell id="114" value="" style="outlineConnect=0;dashed=0;verticalLabelPosition=bottom;verticalAlign=top;align=center;html=1;shape=mxgraph.aws3.classic_load_balancer;fillColor=#F58534;gradientColor=none;" parent="1" vertex="1">
                    <mxGeometry x="-100.00000000000003" y="247.5" width="23.96" height="25" as="geometry"/>
                </mxCell>
                <mxCell id="115" style="edgeStyle=orthogonalEdgeStyle;html=1;" parent="1" source="110" target="114" edge="1">
                    <mxGeometry relative="1" as="geometry"/>
                </mxCell>
                <mxCell id="119" value="" style="group" parent="1" vertex="1" connectable="0">
                    <mxGeometry x="-464" y="186" width="67" height="25" as="geometry"/>
                </mxCell>
                <mxCell id="120" value="" style="rounded=0;whiteSpace=wrap;html=1;aspect=fixed;fillColor=#a20025;strokeColor=#6F0000;fontColor=#ffffff;" parent="119" vertex="1">
                    <mxGeometry x="23.5" width="20" height="10" as="geometry"/>
                </mxCell>
                <mxCell id="121" value="mongoclient" style="text;html=1;strokeColor=none;fillColor=none;align=center;verticalAlign=middle;whiteSpace=wrap;rounded=0;spacing=2;" parent="119" vertex="1">
                    <mxGeometry y="10" width="67" height="15" as="geometry"/>
                </mxCell>
                <mxCell id="133" value="" style="group" parent="1" vertex="1" connectable="0">
                    <mxGeometry x="-576" y="248" width="100" height="65" as="geometry"/>
                </mxCell>
                <mxCell id="117" value="MONGODB" style="rounded=1;whiteSpace=wrap;html=1;fontStyle=1" parent="133" vertex="1">
                    <mxGeometry y="5" width="100" height="60" as="geometry"/>
                </mxCell>
                <mxCell id="128" value="" style="group" parent="133" vertex="1" connectable="0">
                    <mxGeometry x="17" width="67" height="25" as="geometry"/>
                </mxCell>
                <mxCell id="129" value="" style="rounded=0;whiteSpace=wrap;html=1;aspect=fixed;fillColor=#a20025;strokeColor=#6F0000;fontColor=#ffffff;" parent="128" vertex="1">
                    <mxGeometry x="23.5" width="20" height="10" as="geometry"/>
                </mxCell>
                <mxCell id="130" value="mongoserver" style="text;html=1;strokeColor=none;fillColor=none;align=center;verticalAlign=middle;whiteSpace=wrap;rounded=0;spacing=2;" parent="128" vertex="1">
                    <mxGeometry y="10" width="67" height="15" as="geometry"/>
                </mxCell>
                <mxCell id="137" style="edgeStyle=orthogonalEdgeStyle;html=1;exitX=1;exitY=0.5;exitDx=0;exitDy=0;exitPerimeter=0;entryX=0.5;entryY=0;entryDx=0;entryDy=0;" parent="1" source="135" target="129" edge="1">
                    <mxGeometry relative="1" as="geometry"/>
                </mxCell>
                <mxCell id="135" value="" style="outlineConnect=0;dashed=0;verticalLabelPosition=bottom;verticalAlign=top;align=center;html=1;shape=mxgraph.aws3.classic_load_balancer;fillColor=#F58534;gradientColor=none;rotation=180;" parent="1" vertex="1">
                    <mxGeometry x="-474" y="211" width="23.96" height="25" as="geometry"/>
                </mxCell>
                <mxCell id="136" style="edgeStyle=orthogonalEdgeStyle;html=1;exitX=0.5;exitY=1;exitDx=0;exitDy=0;entryX=0;entryY=0.5;entryDx=0;entryDy=0;entryPerimeter=0;" parent="1" source="120" target="135" edge="1">
                    <mxGeometry relative="1" as="geometry"/>
                </mxCell>
                <mxCell id="138" style="edgeStyle=orthogonalEdgeStyle;html=1;exitX=0.5;exitY=1;exitDx=0;exitDy=0;" edge="1" parent="1" source="141" target="11">
                    <mxGeometry relative="1" as="geometry">
                        <Array as="points">
                            <mxPoint x="-364" y="241"/>
                            <mxPoint x="-459" y="241"/>
                            <mxPoint x="-459" y="343"/>
                        </Array>
                    </mxGeometry>
                </mxCell>
                <mxCell id="140" value="" style="group" vertex="1" connectable="0" parent="1">
                    <mxGeometry x="-397" y="186" width="67" height="25" as="geometry"/>
                </mxCell>
                <mxCell id="141" value="" style="rounded=0;whiteSpace=wrap;html=1;aspect=fixed;fillColor=#a20025;strokeColor=#6F0000;fontColor=#ffffff;" vertex="1" parent="140">
                    <mxGeometry x="23.5" width="20" height="10" as="geometry"/>
                </mxCell>
                <mxCell id="142" value="minioclient" style="text;html=1;strokeColor=none;fillColor=none;align=center;verticalAlign=middle;whiteSpace=wrap;rounded=0;spacing=2;" vertex="1" parent="140">
                    <mxGeometry y="10" width="67" height="15" as="geometry"/>
                </mxCell>
            </root>
        </mxGraphModel>
    </diagram>
</mxfile>